<?xml version="1.0" encoding="UTF-8"?>
<!DOCTYPE svg PUBLIC "-//W3C//DTD SVG 1.1//EN" "http://www.w3.org/Graphics/SVG/1.1/DTD/svg11.dtd">
<svg xmlns="http://www.w3.org/2000/svg" xmlns:xlink="http://www.w3.org/1999/xlink" version="1.1" width="284px" height="283px" viewBox="-0.5 -0.5 284 283"><defs/><g><rect x="20" y="115" width="100" height="20" fill="none" stroke="none" transform="rotate(300,70,125)" pointer-events="all"/><path d="M 20 125 L 38 125 L 42 115 L 50 135 L 58 115 L 66 135 L 74 115 L 82 135 L 90 115 L 98 135 L 102 125 L 120 125" fill="none" stroke="#000000" stroke-width="3" stroke-miterlimit="10" transform="rotate(300,70,125)" pointer-events="all"/><rect x="91" y="221" width="100" height="60" fill="none" stroke="none" pointer-events="all"/><path d="M 91 251 L 136 251 M 146 221 L 146 281 M 136 221 L 136 281 M 146 251 L 191 251" fill="none" stroke="#000000" stroke-width="3" stroke-miterlimit="10" pointer-events="all"/><rect x="166.34" y="121" width="100" height="8" fill="none" stroke="none" transform="rotate(60,216.34,125)" pointer-events="all"/><path d="M 166.34 129 L 184.34 129 C 184.34 124.58 187.92 121 192.34 121 C 196.76 121 200.34 124.58 200.34 129 C 200.34 124.58 203.92 121 208.34 121 C 212.76 121 216.34 124.58 216.34 129 C 216.34 124.58 219.92 121 224.34 121 C 228.76 121 232.34 124.58 232.34 129 C 232.34 124.58 235.92 121 240.34 121 C 244.76 121 248.34 124.58 248.34 129 L 266.34 129" fill="none" stroke="#000000" stroke-width="3" stroke-linejoin="round" stroke-miterlimit="10" transform="rotate(60,216.34,125)" pointer-events="all"/><path d="M 1 251 L 45 168.3" fill="none" stroke="#000000" stroke-width="3" stroke-miterlimit="10" pointer-events="stroke"/><path d="M 94.63 82.15 L 141 2.32" fill="none" stroke="#000000" stroke-width="3" stroke-miterlimit="10" pointer-events="stroke"/><path d="M 187.88 83.7 L 141 1" fill="none" stroke="#000000" stroke-width="3" stroke-miterlimit="10" pointer-events="stroke"/><path d="M 1 251 L 91 251" fill="none" stroke="#000000" stroke-width="3" stroke-miterlimit="10" pointer-events="stroke"/><path d="M 191 251 L 281 250.8" fill="none" stroke="#000000" stroke-width="3" stroke-miterlimit="10" pointer-events="stroke"/><path d="M 237.88 170.3 L 281 251" fill="none" stroke="#000000" stroke-width="3" stroke-miterlimit="10" pointer-events="stroke"/><path d="M 161 251 L 168.65 251" fill="none" stroke="#000000" stroke-width="3" stroke-miterlimit="10" pointer-events="stroke"/><path d="M 177.65 251 L 168.65 255.5 L 168.65 246.5 Z" fill="#000000" stroke="#000000" stroke-width="3" stroke-miterlimit="10" pointer-events="all"/><path d="M 188 84 L 186.86 81.88" fill="none" stroke="#000000" stroke-width="3" stroke-miterlimit="10" pointer-events="stroke"/><path d="M 182.59 73.95 L 190.82 79.74 L 182.89 84.01 Z" fill="#000000" stroke="#000000" stroke-width="3" stroke-miterlimit="10" pointer-events="all"/><path d="M 36.79 183.79 L 45 168.3" fill="none" stroke="#000000" stroke-width="3" stroke-miterlimit="10" pointer-events="stroke"/><path d="M 32.57 191.74 L 32.81 181.68 L 40.76 185.89 Z" fill="#000000" stroke="#000000" stroke-width="3" stroke-miterlimit="10" pointer-events="all"/></g></svg>